<svg width="84" height="83" viewBox="0 0 84 83" fill="none" xmlns="http://www.w3.org/2000/svg">
<path d="M39.5569 24.9458L42.996 24.9426C43.4661 24.9419 44.0194 24.8756 44.4775 24.9458C46.6081 25.0288 48.7433 24.8517 50.8737 25.0362C58.2832 25.6779 65.2279 31.3997 67.473 38.4683C69.7837 36.9467 72.8725 37.4043 74.4148 39.7695C75.2182 41.0015 75.1704 42.3907 75.1696 43.8012L75.1693 49.0121C75.1703 49.805 75.2126 50.6376 75.0451 51.4169C74.2645 55.048 70.5308 56.2629 67.473 54.4356C65.1298 61.4056 59.0576 67.024 51.6473 68.0065C50.3225 68.1823 48.9798 68.1414 47.6467 68.1414L37.183 68.1415C35.8429 68.1433 34.4902 68.1799 33.1545 68.0561C25.9866 67.3921 19.6161 62.5746 17.0434 55.8204C16.8958 55.433 16.7783 55.0251 16.6153 54.6451C14.9408 55.4043 13.4903 55.7306 11.7023 54.8784C8.25974 53.2378 8.90108 49.5456 8.89777 46.4216L8.89566 43.9322C8.89545 42.7253 8.86078 41.5471 9.40919 40.4355C10.8557 37.5033 14.0571 37.106 16.7536 38.4683C16.8529 38.2591 16.9088 38.0053 16.9883 37.7855C19.4413 31.0043 25.815 25.7242 33.0512 25.037C35.0936 24.8432 37.4826 24.941 39.5569 24.9458Z" fill="url(#paint0_linear_1748_4644)"/>
<path d="M16.6153 54.6451C14.9408 55.4043 13.4903 55.7306 11.7023 54.8784C8.25974 53.2378 8.90108 49.5456 8.89777 46.4216L8.89566 43.9322C8.89545 42.7253 8.86078 41.5471 9.40919 40.4355C10.8557 37.5033 14.0571 37.1059 16.7536 38.4683C15.4355 41.1497 15.3988 47.3802 15.8077 50.5724C15.9855 51.9595 16.3551 53.2813 16.6153 54.6451Z" fill="url(#paint1_linear_1748_4644)"/>
<path d="M67.4727 38.4679C69.7834 36.9463 72.8722 37.4039 74.4145 39.769C75.2179 41.0011 75.1701 42.3902 75.1693 43.8007L75.169 49.0117C75.17 49.8046 75.2123 50.6372 75.0448 51.4164C74.2642 55.0476 70.5305 56.2625 67.4727 54.4351C69.0252 50.8689 68.7784 42.3447 67.4727 38.4679Z" fill="url(#paint2_linear_1748_4644)"/>
<path d="M38.8741 30.4863L45.4486 30.4852C49.6988 30.4855 52.9618 30.617 56.5744 33.3868C64.1924 39.2279 65.6253 51.4214 58.7548 58.3097C55.7062 61.3664 52.9904 62.2197 48.8999 62.2064L45.7018 62.204L36.22 62.2065C35.0318 62.2049 33.8376 62.2121 32.6591 62.0377C27.267 61.2399 22.2981 56.4932 21.5366 51.0462C21.3855 49.9654 21.3988 48.864 21.3997 47.7753L21.3984 44.7329C21.3991 43.8266 21.3927 42.8966 21.5397 42.0001C22.5059 36.1087 28.331 31.3379 34.1264 30.6321C35.6985 30.4406 37.2933 30.4839 38.8741 30.4863Z" fill="url(#paint3_linear_1748_4644)"/>
<path d="M35.7901 54.4352C36.9144 54.1958 37.5462 55.419 38.3786 55.9323C43.6472 59.1818 46.6228 54.3376 47.9988 54.3467C50.2115 54.3616 50.2759 56.7085 48.5372 58.1889C48.349 58.3814 48.0795 58.5548 47.8571 58.7079C44.2221 61.2128 39.3106 61.1513 35.7761 58.443C34.2069 57.2405 33.4262 54.7121 35.7901 54.4352Z" fill="#7C9EF7"/>
<path d="M30.0085 42.56C35.1622 42.1133 36.1421 49.2865 30.9498 50.236C25.8232 50.6941 24.9122 43.2291 30.0085 42.56Z" fill="#85A7F7"/>
<path d="M53.3256 42.5596C54.1724 42.3374 55.3 42.8182 55.9594 43.3262C58.7637 45.4869 57.3674 49.6812 53.9989 50.0833L53.9388 50.0878C48.7265 50.4614 48.4073 42.7647 53.3256 42.5596Z" fill="#85A7F7"/>
<path d="M39.5571 23.5143C37.8881 22.4359 36.9114 21.5234 36.4748 19.4974C35.3444 14.2512 41.0518 10.44 45.3762 13.3381C49.1895 15.8938 48.7255 21.66 44.4777 23.5143C44.4783 23.9909 44.487 24.4692 44.4777 24.9457C44.0196 24.8754 43.4663 24.9418 42.9962 24.9425L39.5571 24.9457C39.5566 24.4688 39.5496 23.991 39.5571 23.5143Z" fill="url(#paint4_linear_1748_4644)"/>
<defs>
<linearGradient id="paint0_linear_1748_4644" x1="26.9869" y1="66.8312" x2="56.9788" y2="26.4069" gradientUnits="userSpaceOnUse">
<stop stop-color="#9EB7EB"/>
<stop offset="1" stop-color="#CDEEF5"/>
</linearGradient>
<linearGradient id="paint1_linear_1748_4644" x1="16.7216" y1="46.4809" x2="8.89998" y2="46.5693" gradientUnits="userSpaceOnUse">
<stop stop-color="#8BA8EF"/>
<stop offset="1" stop-color="#B7DCEF"/>
</linearGradient>
<linearGradient id="paint2_linear_1748_4644" x1="67.0501" y1="46.6568" x2="75.3228" y2="46.0908" gradientUnits="userSpaceOnUse">
<stop stop-color="#A0B1F4"/>
<stop offset="1" stop-color="#BDE5F3"/>
</linearGradient>
<linearGradient id="paint3_linear_1748_4644" x1="31.6191" y1="62.6405" x2="52.3904" y2="30.6981" gradientUnits="userSpaceOnUse">
<stop stop-color="#B9CBEC"/>
<stop offset="1" stop-color="#E8F4F2"/>
</linearGradient>
<linearGradient id="paint4_linear_1748_4644" x1="41.8529" y1="24.9188" x2="42.3668" y2="12.4318" gradientUnits="userSpaceOnUse">
<stop stop-color="#848EE7"/>
<stop offset="1" stop-color="#90DAFB"/>
</linearGradient>
</defs>
</svg>
