<svg width="80" height="112" viewBox="0 0 80 112" fill="none" xmlns="http://www.w3.org/2000/svg">
<path d="M26.1142 36.3755C26.0618 35.7949 26.1096 35.1552 26.1096 34.5702L26.1121 30.7998C26.1224 25.8736 28.1677 26.0866 32.1096 26.092L56.8856 26.091C62.6755 26.0679 64.1268 25.0059 64.127 32.2147L64.1265 64.1731C64.1369 69.1008 64.4758 70.5695 59.6008 70.5703L53.0668 70.5674L53.0683 78.221C53.0685 81.0956 53.6469 84.8169 49.7595 84.8704C47.3399 84.9038 44.916 84.8667 42.496 84.866L21.2396 84.8678C15.5269 84.8812 14.9734 85.1472 14.9756 78.2503L14.9774 46.007C15.0485 41.6508 16.3449 41.4986 20.0876 41.5009L24.8813 41.5034C25.2865 41.459 25.7072 41.4932 26.1142 41.5034C26.1115 39.795 26.0887 38.0837 26.1142 36.3755Z" fill="#6EADFF"/>
<path d="M26.1143 36.3755C26.0619 35.7949 26.1096 35.1552 26.1096 34.5702L26.1121 30.7998C26.1224 25.8736 28.1677 26.0866 32.1096 26.092L56.8856 26.091C62.6756 26.0679 64.1269 25.0059 64.127 32.2147L64.1266 64.1731C64.1369 69.1008 64.4758 70.5695 59.6008 70.5703L53.0668 70.5674L53.0685 53.8617C53.069 49.2573 51.9412 48.872 47.828 48.8787L26.1143 48.8831L26.1163 43.8239C26.1178 43.0739 26.2007 42.2443 26.1143 41.5034H24.8813C25.2865 41.459 25.7072 41.4932 26.1143 41.5034C26.1115 39.795 26.0887 38.0837 26.1143 36.3755Z" fill="#FFB885"/>
<path d="M35.6162 36.3754L53.505 36.3721C54.2104 36.3708 54.9734 36.3062 55.6704 36.4074C57.9401 36.7369 58.0827 40.2793 55.6808 40.5577C54.7999 40.6598 53.8655 40.5973 52.9771 40.5967L39.9685 40.596C38.6982 40.596 34.6979 40.9643 33.8239 39.9896C33.0586 39.1356 33.2908 37.8899 33.8432 36.9987C34.4316 36.473 34.8474 36.3693 35.6162 36.3754Z" fill="#6EADFF"/>
<path d="M41.4056 58.0567L41.875 58.037C45.0378 57.9281 44.5691 61.6672 42.9173 61.9642C42.3162 62.0723 41.6653 62.0206 41.0572 62.0204L27.3532 62.0187C26.5558 62.0147 25.6107 62.1436 24.9817 61.4926C23.9787 60.4545 24.3979 58.3194 25.8571 58.1057C26.4711 58.0157 27.1227 58.0555 27.7411 58.0553L41.4056 58.0567Z" fill="#FFB885"/>
<path d="M26.0458 67.0702C27.0438 66.9823 28.0776 67.0686 29.08 67.0697L40.0677 67.0688C40.9226 67.0688 41.8189 66.9854 42.6673 67.1152C44.707 67.4273 44.8781 71.9454 42.2312 71.9876C39.1128 72.0373 35.9885 71.9772 32.8696 71.9785L29.5789 71.9816C29.0479 71.9831 28.4756 72.0428 27.9485 71.9802C27.1183 71.9893 25.9582 72.2249 25.2431 71.5676C23.7748 70.218 24.4592 67.4597 26.0458 67.0702Z" fill="#FFB885"/>
</svg>
