<svg width="85" height="85" viewBox="0 0 85 85" fill="none" xmlns="http://www.w3.org/2000/svg">
<path d="M44.8726 41.2027C44.7259 40.8458 44.726 40.2662 44.6982 39.8753C44.2439 33.5143 48.003 27.2057 53.9161 24.689C55.8245 23.8768 60.6621 22.9187 62.6829 23.7356C63.0875 24.069 64.4868 23.9407 64.3817 24.7305C64.0624 25.061 64.0565 24.6381 63.8401 25.2901C63.492 26.3383 61.2835 27.3821 60.6918 28.3704C60.1427 29.2874 59.7882 29.0645 58.9616 29.2476L58.975 29.2848C56.2693 29.9926 55.339 31.0853 54.2595 33.7649L54.1943 33.7771C54.1748 33.8994 54.1358 34.0146 54.1299 34.1392L54.0681 34.1748L53.9739 34.0998C53.6308 34.2513 53.9471 34.4028 53.4917 34.2025C53.3646 34.2816 51.1736 36.2847 51.1053 36.3586C50.6073 36.8972 50.2274 37.5318 49.6871 38.0337C49.3723 38.3261 48.3013 38.9142 48.1812 39.1998C48.099 39.3954 46.2389 41.1835 45.9048 41.6208C45.5099 42.1378 45.7513 42.4403 45.6123 42.7157C45.3014 42.6271 45.6264 42.8209 45.5451 42.9486L45.4005 42.9725C45.2481 42.8284 44.9924 41.5076 44.9601 41.2427L44.8726 41.2027Z" fill="#EDF6F9"/>
<path d="M53.9165 24.6888C55.8248 23.8766 60.6621 22.9188 62.6831 23.7356C66.1189 24.149 70.1685 26.9155 72.2299 29.5471C77.4189 36.1717 76.1705 45.8626 69.562 51.0169C62.8431 56.2571 52.9608 54.6008 47.8364 47.9446C46.6635 46.4208 45.0282 43.2214 44.8735 41.2024C44.7268 40.8456 44.7265 40.2661 44.6987 39.8753C44.2444 33.5143 48.0034 27.2054 53.9165 24.6888ZM59.8354 44.2356C57.2821 44.576 57.5942 48.3638 60.2104 48.1868C62.8738 47.6868 62.3106 44.0756 59.8354 44.2356ZM63.2768 30.4456C61.9181 29.3472 60.6841 29.109 58.975 29.2845C56.2694 29.9923 55.3388 31.0853 54.2592 33.7649C53.944 35.0852 54.5974 36.4886 56.1665 36.3636C58.1836 36.2023 58.7884 31.4038 61.0356 33.4807C63.2932 35.5678 58.0654 37.8378 58.2153 40.2854C58.2793 41.3298 59.1784 42.0688 60.2172 41.9573C61.4851 41.8208 62.1439 40.3444 62.8754 39.4807C63.3501 38.9207 63.899 38.4261 64.3657 37.8626C66.2405 35.5981 65.4371 32.192 63.2768 30.4456Z" fill="#959BFF"/>
<path d="M9.97607 22.9374C10.7507 17.1569 15.9017 12.0834 21.4636 10.7383C21.543 10.8062 21.6141 10.8709 21.6834 10.9498L21.8066 10.9492L21.7946 11.0132C20.8639 11.6436 20.245 12.6481 19.1266 13.2919C18.8616 13.4444 18.5773 13.4933 18.3205 13.6717C16.4607 14.9637 15.3309 16.2071 13.7453 17.7726C13.0109 18.4978 12.6755 18.5224 12.0887 19.7035C11.7674 20.3502 11.6657 20.9953 11.0409 21.5032C10.7422 21.5656 10.247 23.0345 10.0898 22.7629L9.97607 22.9374Z" fill="#EDF6F9"/>
<path d="M21.4637 10.7389C25.4094 9.8837 29.4195 10.3885 32.8806 12.5983C43.4642 19.3561 42.1483 35.4408 30.1736 39.9108C19.536 43.8816 8.43621 35.0908 9.83572 23.7555C9.86505 23.518 9.88837 23.1547 9.97635 22.9372C10.7511 17.157 15.9021 12.0842 21.4637 10.7389ZM24.4988 30.9586C22.1109 31.5541 22.625 34.9788 25.0701 34.6012C27.4273 33.8111 26.8399 30.8005 24.4988 30.9586ZM30.1531 20.3961C29.622 17.9355 27.0504 15.9453 24.4978 16.2692C23.0582 16.3767 21.6136 17.0164 20.6541 18.1168C17.2783 21.9878 21.0369 24.5691 22.4549 22.7086C22.954 22.0533 22.7814 21.2639 23.4783 20.6217C24.9868 19.232 27.5428 20.8452 25.9754 22.7956C25.2912 23.6467 24.4291 24.3546 23.7244 25.192C21.4708 28.1464 25.0942 29.8554 26.2722 28.0788C26.4741 27.7744 26.5934 27.4053 26.8191 27.1188C28.5 24.9852 30.9366 24.0261 30.1531 20.3961Z" fill="#3FC277"/>
<path d="M34.3906 74.4693C34.743 74.0885 36.4458 73.5187 37.0626 73.1326C37.3199 72.9716 37.3314 72.6857 37.525 72.4849C37.8042 72.1951 38.1849 72.2433 38.1449 71.7753L38.14 71.7232C38.2537 71.514 38.5957 71.3672 38.7749 71.206C39.3822 70.6599 40.044 70.0408 40.5914 69.4331C41.0295 68.9467 41.2179 68.3283 41.783 67.9538C41.7832 68.0582 41.7773 68.1481 41.824 68.2444L41.8741 68.2317C42.2851 67.0668 42.5213 67.5299 43.0799 66.846C43.8061 65.9568 44.3913 64.9097 45.0917 64.0674C45.5299 63.5404 46.4125 63.2142 46.5721 62.4956L46.6235 62.4785C46.6573 62.5876 46.6511 62.6653 46.6383 62.776L46.633 62.8183C46.7181 62.6733 46.8018 62.5367 46.9058 62.4047L46.9669 62.3984C47.0114 62.5429 46.9402 62.6487 46.9797 62.7863L47.0875 62.7819L47.181 62.6733C45.8105 68.9515 40.6417 73.484 34.3906 74.4693Z" fill="#83C5BE"/>
<path d="M17.7522 56.6211C20.3281 43.3952 37.4101 39.8127 45.0481 51.2725C47.2908 54.6377 47.96 58.7374 47.1809 62.6729C45.8103 68.9508 40.6418 73.4834 34.3908 74.4688C32.8021 74.3377 31.3434 74.5793 29.6926 74.2695C21.555 72.743 16.1696 64.7464 17.7522 56.6211ZM32.1496 65.2012C29.839 65.6418 30.4069 68.8707 32.6467 68.6065C34.8204 67.9926 34.4107 65.0267 32.1496 65.2012ZM32.1496 50.4903C30.5548 50.5379 29.1846 51.1918 28.0891 52.3594C24.4962 56.188 28.326 58.7261 29.9065 56.749C30.666 55.7989 30.4319 54.5133 32.0022 54.2988C32.8502 54.183 33.7856 54.7056 33.8576 55.624C33.9522 56.8321 32.083 58.14 31.3352 59.1172C30.8138 59.7374 30.3064 60.3258 30.385 61.1953C30.476 62.202 31.3714 63.0905 32.4152 62.9717C33.3275 62.8677 33.906 61.8841 34.4787 61.2735C36.2744 59.3588 38.104 57.9692 37.6731 55.0059C37.2851 52.3387 34.8491 50.3052 32.1496 50.4903Z" fill="#C74243"/>
</svg>
