<svg width="108" height="108" viewBox="0 0 108 108" fill="none" xmlns="http://www.w3.org/2000/svg">
<path d="M51.7269 16.242C51.8186 16.238 51.9099 16.2341 52.0018 16.2334L69.9545 16.2412C72.9799 16.2417 75.3778 16.2207 77.6847 18.5193C79.9619 20.7881 80.2521 23.1154 80.2682 26.1654L80.2675 31.5686C80.2663 35.4323 80.5834 38.3045 77.622 41.2705C74.6706 44.2263 71.7167 43.8812 67.9318 43.8709H66.813C65.4256 45.2139 63.7532 48.5513 61.7401 48.4627C60.2726 48.3984 58.0562 45.1702 56.8831 43.8709C53.3633 43.8143 50.3248 44.3811 47.3364 42.0051C43.3768 38.8567 43.9204 35.1365 43.916 30.7049L43.9125 26.8199C43.9119 25.5917 43.8509 24.3369 44.116 23.13C44.9264 19.4409 47.9237 16.6222 51.7269 16.242ZM59.6835 31.0212C59.5157 31.7368 59.4556 32.3851 59.8655 33.0413C61.2474 35.2535 63.6348 33.8308 65.2476 32.7621C70.3362 29.391 67.126 21.2088 61.252 22.1458C59.6908 22.3881 58.3048 23.1208 57.3566 24.4094C54.2355 28.6502 58.6274 30.7478 60.2064 28.3291C60.6493 27.6503 60.9222 26.6678 61.8412 26.4848C63.0713 26.2395 63.8852 27.976 63.0736 28.9191C62.0804 30.0732 60.6598 28.8499 59.6835 31.0212ZM62.3008 39.7818C65.0477 39.0982 64.5496 35.205 61.6891 35.4054C58.7459 36.2145 59.2548 39.872 62.3008 39.7818Z" fill="#BD2E30" fill-opacity="0.75"/>
<path d="M50.399 68.0902C51.1096 68.1257 51.8176 68.0733 52.5302 68.1341C57.9466 68.5968 62.633 73.2244 62.8679 78.7252C62.9466 80.5716 62.8729 82.4487 62.8785 84.2987C62.8848 86.3386 63.6413 90.0318 60.5677 90.0517L33.6024 90.0529C29.2498 90.0544 28.2567 90.866 28.2612 85.825L28.2627 80.7385C28.2623 79.6787 28.2521 78.6163 28.3935 77.5636C29.0773 72.4756 33.3375 68.5536 38.4205 68.1207C39.2367 68.0511 40.0806 68.0883 40.9002 68.0902C40.8818 72.0996 40.6296 72.8863 44.8052 72.8517C46.5058 72.8375 49.7597 73.379 50.1686 71.0965C50.2718 70.5197 49.9049 68.1748 50.399 68.0902Z" fill="#3D405B"/>
<path d="M40.9006 66.9598C40.3165 66.5998 39.6753 66.2706 39.1277 65.8592C34.7171 62.5448 33.9086 56.3242 36.79 51.7316C39.7639 46.9906 46.1555 45.5215 50.9065 48.55C55.8922 51.7278 57.1772 58.4759 53.9837 63.3771C52.8029 65.1892 51.8327 65.7186 50.1977 66.9598C50.1766 67.2907 49.9931 67.9762 50.3995 68.0903C49.9054 68.1749 50.2723 70.5198 50.1691 71.0966C49.7602 73.379 46.5063 72.8375 44.8057 72.8517C40.6301 72.8864 40.8822 72.0996 40.9006 68.0903C40.9019 67.7136 40.9081 67.3363 40.9006 66.9598Z" fill="#FDA5A3"/>
</svg>
