<svg width="99" height="99" viewBox="0 0 99 99" fill="none" xmlns="http://www.w3.org/2000/svg">
<path d="M44.718 44.926C44.7237 44.1468 44.6533 43.3387 44.718 42.564C44.7527 43.3489 44.7153 44.1399 44.718 44.926C50.5112 44.7156 54.3508 47.9 54.0165 53.9119L54.0179 74.0963C54.0235 78.7502 53.0459 82.9542 47.6767 84.3112C45.8571 84.7711 42.6927 84.5865 40.7159 84.5869L31.8937 84.5909L31.6282 84.5875L26.2273 84.5867C22.75 84.5855 19.9329 84.8435 17.2337 82.1426C14.8223 79.7298 14.7424 77.078 14.7403 73.8935L14.7422 69.7379C14.742 69.7273 14.7417 69.7167 14.7416 69.7061L14.7398 55.1876C14.7391 53.9692 14.6658 52.7052 14.9538 51.5122C15.7279 48.3063 18.4806 45.7517 21.6853 45.0887C22.858 44.846 24.0495 44.9206 25.238 44.9229L44.718 44.926Z" fill="#3FC277"/>
<path d="M39.7136 56.1991C41.3796 56.1258 42.8961 57.4882 42.9106 59.1774C42.9251 60.8629 40.05 63.158 38.7689 64.4501C40.023 65.8206 42.846 67.8219 42.7748 69.7314C42.7015 71.6947 40.3348 73.169 38.5875 72.1182C37.6247 71.5388 35.607 69.2646 34.763 68.3579C33.244 69.5643 31.697 72.15 29.7828 72.4772C28.1353 72.5044 26.6252 71.3154 26.6512 69.5836C26.6715 68.2377 27.8093 67.3304 28.6832 66.4597L30.7034 64.4501C29.6814 63.2463 27.8078 61.675 27.028 60.4329C25.6155 58.1825 28.2225 55.259 30.6286 56.514C31.8351 57.1433 33.4519 59.4133 34.763 60.3709C35.7139 59.0834 37.9654 56.317 39.7136 56.1991Z" fill="white"/>
<path d="M44.7182 42.5638L44.7149 24.1875C44.7089 19.9638 45.3992 16.622 49.9774 14.858C51.6832 14.2008 53.4509 14.3432 55.2523 14.3429L75.5045 14.3465C79.5112 14.3563 82.8382 16.4203 83.6917 20.5883C83.9644 21.9202 83.8933 23.3451 83.8929 24.6988L83.8911 45.979C83.879 49.6793 81.6317 53.0028 77.9136 53.7662C76.8196 53.991 75.6237 53.9138 74.5117 53.9132L54.0167 53.9117C54.351 47.8998 50.5114 44.7154 44.7182 44.9258C44.7155 44.1397 44.7529 43.3487 44.7182 42.5638Z" fill="#FB5153"/>
<path d="M70.1843 27.3428C72.6517 26.9005 74.6821 29.703 72.4067 32.132C70.7621 33.8873 68.9184 35.4634 67.2494 37.2039C66.1575 38.3425 64.8596 40.2177 63.128 40.2663C60.9824 40.3265 59.4473 38.3719 58.0107 37.0035C57.011 36.0038 55.3232 34.7925 55.1821 33.2962C55.0442 31.832 56.1915 30.2767 57.7028 30.1633C59.7672 30.0084 61.5569 32.7728 62.9993 33.9954C64.3916 32.7763 66.1618 30.8421 67.5039 29.4832C68.2256 28.7525 69.0955 27.5176 70.1843 27.3428Z" fill="white"/>
</svg>
