<svg width="59" height="68" viewBox="0 0 59 68" fill="none" xmlns="http://www.w3.org/2000/svg">
<path d="M26.1542 12.0691C24.3603 12.0762 22.1216 12.4364 20.721 11.081C19.0131 9.42804 19.5514 6.10927 22.1037 5.66487C22.6986 5.56133 23.3755 5.61111 23.9803 5.61092L39.279 5.61453C39.2265 7.55339 39.1616 10.1493 39.279 12.0691H32.7218V30.4037C34.8993 30.4149 37.1062 30.3129 39.279 30.4037C39.3785 30.7189 39.2784 36.1683 39.279 36.9499H32.7218L32.7267 56.6832C32.7497 61.9522 31.6341 61.8601 26.3559 61.8599L19.7746 61.8567C19.7725 59.7008 19.8725 57.5059 19.7746 55.3565H26.1542V37.176H19.7746C19.7292 34.9223 19.774 32.6583 19.7746 30.4037H26.1542C26.2231 28.3343 26.1551 26.2387 26.1543 24.167L26.1542 12.0691Z" fill="#3D405B"/>
<path d="M39.2788 5.61455C40.1505 -0.249174 44.5607 0.19104 49.1851 0.20092C52.9141 0.208899 56.8923 -0.0190929 57.9251 4.86902C58.1636 5.99738 58.2124 11.4864 57.9903 12.7144C57.5575 15.1065 55.5639 16.851 53.219 17.2451C51.9337 17.4609 45.2219 17.4296 44.1103 17.2084C41.5401 16.6968 39.547 14.684 39.2788 12.0691C39.1614 10.1493 39.2263 7.55341 39.2788 5.61455Z" fill="url(#paint0_linear_1748_4795)"/>
<path d="M19.7745 37.176C19.5288 37.6929 19.4662 38.3719 19.2072 38.9298C17.2964 43.0456 13.5582 42.5736 9.90367 42.5628C8.05429 42.5575 6.17318 42.877 4.44121 42.0563C0.747771 40.3059 0.897485 36.8769 0.894255 33.3812C0.886655 25.1592 4.20163 25.5648 10.6545 25.5553C15.2983 25.5483 18.1035 25.2902 19.7745 30.4037C19.7739 32.6583 19.7291 34.9223 19.7745 37.176Z" fill="#E07A5F"/>
<path d="M19.7744 61.8568C19.5508 64.735 17.5466 67.1213 14.6159 67.585C13.2672 67.7986 6.76964 67.8043 5.5326 67.4646C3.13985 66.8078 1.39268 64.9316 0.989897 62.4898C0.269638 58.1235 0.487558 51.4021 6.12405 50.641C7.30371 50.4818 14.277 50.4694 15.1177 50.7157C18.3445 51.6603 18.4595 53.0457 19.7744 55.3566C19.8722 57.506 19.7723 59.701 19.7744 61.8568Z" fill="#E07A5F"/>
<path d="M39.2788 30.404C39.9387 29.8496 39.7623 26.1408 44.3653 25.4584C45.5516 25.2824 52.2534 25.2591 53.3551 25.4758C55.6905 25.9352 57.5397 27.9949 57.8541 30.3387C58.0247 31.6107 58.0513 36.7899 57.7909 38.014C56.7964 42.6878 52.8142 42.5797 49.174 42.57C44.8821 42.5588 39.9033 42.574 39.2895 37.0503L39.2788 36.9502C39.2782 36.1686 39.3784 30.7192 39.2788 30.404Z" fill="#E07A5F"/>
<defs>
<linearGradient id="paint0_linear_1748_4795" x1="49.0863" y1="17.3476" x2="48.1538" y2="0.12318" gradientUnits="userSpaceOnUse">
<stop stop-color="#FF8C68"/>
<stop offset="1" stop-color="#FFB885"/>
</linearGradient>
</defs>
</svg>
