<svg width="55" height="53" viewBox="0 0 55 53" fill="none" xmlns="http://www.w3.org/2000/svg">
<path d="M30.4862 52.1656L8.76813 52.1665C6.36023 52.1666 4.36328 52.3605 2.50436 50.5235C1.18222 49.2167 0.711378 47.7326 0.704101 45.893L0.702152 7.93481C0.698899 2.76583 3.13402 0.853831 8.13657 0.847647L47.6915 0.84668C50.7908 0.847241 53.673 1.81065 54.3731 5.33397C54.5655 6.30206 54.4849 7.37505 54.4847 8.36053L54.4839 29.7086L54.4843 45.1685C54.4842 46.1499 54.5356 47.1266 54.335 48.093C53.932 50.0355 52.1005 51.6903 50.1847 52.0689C49.3248 52.2387 48.3881 52.1681 47.5145 52.1676L34.8168 52.1656C33.3856 52.1656 31.9125 52.2523 30.4862 52.1656Z" fill="#FF856E"/>
<path d="M35.9462 30.8772H43.4087C44.9301 31.2997 45.7997 32.4545 45.3144 34.0438C44.8863 34.9446 44.1877 35.4488 43.2136 35.5543L36.9475 35.555C36.1831 35.556 34.5598 35.6388 33.8825 35.4992C32.1324 35.1381 31.3414 32.8808 32.645 31.561C33.5444 30.6504 34.7872 30.8913 35.9462 30.8772Z" fill="white"/>
<path d="M42.9681 38.9538C45.2931 39.1143 46.3346 41.5752 44.6116 43.0608C43.7662 43.7897 42.2381 43.5925 41.2142 43.5925L37.8522 43.5904L35.6813 43.5921C35.0001 43.5935 34.2461 43.6556 33.5834 43.4757C31.3626 42.8725 31.4579 39.5206 33.7136 39.0303C34.4973 38.8599 35.7281 38.9544 36.5559 38.9541C38.6919 38.9534 40.8328 38.9885 42.9681 38.9538Z" fill="white"/>
<path d="M35.9458 30.877C36.2499 30.6604 37.4403 30.8773 37.8089 30.8832C38.5586 30.8953 42.6822 30.7975 42.7319 30.7469L42.7493 30.6709C42.8296 30.6971 42.8171 30.7041 42.8645 30.7748L42.9426 30.7647L42.9639 30.6738C43.0674 30.7221 43.1012 30.7496 43.2168 30.7362L43.2779 30.6736L43.2981 30.6977C43.3561 30.7661 43.4042 30.8125 43.4825 30.8592L43.4083 30.877H35.9458Z" fill="#FF6F00"/>
<path d="M20.6398 30.1311C22.4257 30.029 23.7723 31.8218 22.9239 33.4974C22.4226 34.4878 20.4927 35.9669 19.6865 36.9517L19.6525 36.9935C20.5335 37.9269 21.507 38.7486 22.347 39.7306C23.8696 41.5103 22.825 44.0158 20.5654 43.7913C19.4611 43.6815 17.1584 41.1595 16.387 40.229C15.2931 41.2784 13.5008 43.678 12.0631 43.7798C10.7902 43.7089 9.68186 42.9285 9.6848 41.5438C9.68789 40.1105 12.1861 38.1608 13.2246 37.1498C12.0529 35.9491 9.55958 34.1872 9.53827 32.5002C9.51653 30.7694 11.4321 29.629 12.9618 30.4712C13.6154 30.831 14.1627 31.482 14.692 32.0006L16.387 33.6681C17.4313 32.6314 19.2676 30.283 20.6398 30.1311Z" fill="#EDF6F9"/>
<path d="M16.0421 8.70546C19.008 8.50466 18.6248 11.1901 18.6192 13.0971C19.442 13.0978 21.0678 12.9869 21.7909 13.2021C23.3842 13.6763 23.8572 15.8119 22.711 16.9637C21.9935 17.6847 21.1212 17.6402 20.1761 17.6399L18.6192 17.6374C18.6245 19.2313 18.9867 21.3312 17.0885 21.9708C14.837 22.6399 14.0875 20.8957 14.0873 19.0089L14.0895 17.6374L12.7596 17.6413C11.9185 17.6424 11.1965 17.6375 10.5542 17.0135C8.82452 15.3329 10.1831 13.062 12.7618 13.0919L14.0895 13.0971C14.0833 11.2652 13.7836 9.16301 16.0421 8.70546Z" fill="white"/>
<path d="M35.1267 13.0968C37.6819 13.0955 40.2437 13.0547 42.7982 13.0997C46.762 13.1697 46.158 17.8402 42.7698 17.7076L37.084 17.708C36.1448 17.7091 34.826 17.796 33.9405 17.6393C31.7565 17.2525 31.0101 13.1732 35.1267 13.0968Z" fill="white"/>
<path d="M37.5715 36.9934C38.3393 36.8076 37.8719 37.3282 37.6867 37.5681C37.2691 37.4728 37.2705 37.2322 37.5715 36.9934Z" fill="#FF6F00"/>
</svg>
