<svg width="73" height="73" viewBox="0 0 73 73" fill="none" xmlns="http://www.w3.org/2000/svg">
<path d="M22.2783 34.2363L22.2776 21.215C22.2775 16.1918 22.9583 13.1472 26.7507 9.34974C32.3894 3.70359 41.6867 4.05423 47.256 9.65551C50.8767 13.2968 51.3371 16.7149 51.3378 21.5834L51.3367 35.4544L51.3516 35.4277C52.0729 34.1088 51.7935 33.2755 53.085 32.1908C55.1903 30.4229 58.4375 31.4698 59.1761 34.1614C59.4761 35.2549 59.403 38.724 59.3437 40.0343C59.0223 47.1358 54.0914 53.5584 47.1399 55.4046C45.2332 55.9111 43.3171 56.0038 41.3547 55.9981L33.59 55.9927C33.2484 55.9889 32.8959 55.9659 32.5558 55.9981C31.9907 56.0473 31.3876 55.9885 30.82 55.958C25.9437 55.696 21.9493 54.0735 18.6335 50.4709C15.0016 46.525 14.391 42.2687 14.3804 37.0994C14.3778 35.8444 14.2482 34.6059 14.8417 33.4516C15.8058 31.5766 18.1336 30.6618 20.053 31.6974C21.3213 32.3817 21.8801 33.4885 22.2783 34.8137C22.2871 34.6211 22.2671 34.4299 22.2783 34.2363Z" fill="#3FC277"/>
<path d="M32.5558 55.9984C31.9907 56.0476 31.3876 55.9889 30.82 55.9584C25.9437 55.6964 21.9493 54.0738 18.6335 50.4713C15.0016 46.5254 14.391 42.269 14.3804 37.0998C14.3778 35.8447 14.2482 34.6063 14.8417 33.452C15.8058 31.577 18.1336 30.6621 20.053 31.6978C21.3213 32.3821 21.8801 33.4888 22.2783 34.814C22.2871 34.6214 22.2671 34.4303 22.2783 34.2367L22.2769 38.1763C22.2726 42.5313 23.5806 45.8146 27.6916 48.0586C30.8828 49.8005 37.4367 49.3585 41.2858 49.3156C45.1283 49.2728 48.5658 47.2545 50.2757 43.8097C51.6742 40.9927 51.291 38.4492 51.3367 35.4548L51.3516 35.4281C52.0729 34.1092 51.7935 33.2759 53.085 32.1912C55.1903 30.4233 58.4375 31.4702 59.1761 34.1618C59.4761 35.2553 59.403 38.7244 59.3437 40.0347C59.0223 47.1362 54.0914 53.5588 47.1399 55.4049C45.2332 55.9114 43.3171 56.0042 41.3547 55.9984L33.59 55.9931C33.2484 55.9893 32.8959 55.9663 32.5558 55.9984Z" fill="url(#paint0_linear_1748_4632)"/>
<path d="M32.5561 55.9983C32.8961 55.9661 33.2487 55.9892 33.5903 55.993L41.355 55.9983L41.3561 60.9301C41.3562 62.1547 41.4798 63.7508 41.1701 64.9243C40.0712 69.09 33.8238 69.2619 32.7049 64.761C32.439 63.6909 32.5568 62.1349 32.5566 61.0076L32.5561 55.9983Z" fill="url(#paint1_linear_1748_4632)"/>
<path d="M30.2303 21.0218C33.1477 20.9745 36.0733 21.0218 38.9915 21.0233L41.7738 21.0212C42.6689 21.0176 43.735 20.8664 44.5049 21.4268C46.2584 22.7029 45.645 25.3089 43.3033 25.6203C42.5153 25.6492 41.7242 25.6113 40.9357 25.614L32.1243 25.621C31.3785 25.6214 30.6062 25.6601 29.8676 25.5503C27.4229 25.1867 27.2122 21.3946 30.2303 21.0218Z" fill="white" fill-opacity="0.75"/>
<path d="M30.2303 33.0218C33.1477 32.9745 36.0733 33.0218 38.9915 33.0233L41.7738 33.0212C42.6689 33.0176 43.735 32.8664 44.5049 33.4268C46.2584 34.7029 45.645 37.3089 43.3033 37.6203C42.5153 37.6492 41.7242 37.6113 40.9357 37.614L32.1243 37.621C31.3785 37.6214 30.6062 37.6601 29.8676 37.5503C27.4229 37.1867 27.2122 33.3946 30.2303 33.0218Z" fill="white" fill-opacity="0.75"/>
<defs>
<linearGradient id="paint0_linear_1748_4632" x1="36.5055" y1="55.9771" x2="36.978" y2="31.0132" gradientUnits="userSpaceOnUse">
<stop offset="0.48" stop-color="#32B365"/>
<stop offset="1" stop-color="#63D891"/>
</linearGradient>
<linearGradient id="paint1_linear_1748_4632" x1="41.3041" y1="62.1172" x2="32.3995" y2="61.8014" gradientUnits="userSpaceOnUse">
<stop stop-color="#37B86B"/>
<stop offset="1" stop-color="#83E277"/>
</linearGradient>
</defs>
</svg>
